PathFileType	4	(X/Y/Z)	c:/Users/goper/Files/vsCode/490R/osim_files/A06/A06_SSWS_06.trc
DataRate	CameraRate	NumFrames	NumMarkers	Units                	OrigDataRate	OrigDataStartFrame	OrigNumFrames
120.00	120.00	4	36	mm	120.0	1217	1390
                Frame#	Time	LPSIS			LASIS			LTH1			LTH2			LTH3			LTH4			LLFE			LMFE			LSH1			LSH2			LSH3			LSH4			LLMAL			LMMAL			LCAL			LMTP5			LTOE			LMTP1			RPSIS			RASIS			RTH1			RTH2			RTH3			RTH4			RLFE			RMFE			RSH1			RSH2			RSH3			RSH4			RLMAL			RMMAL			RCAL			RMTP1			RTOE			RMTP5		
		X1	Y1	Z1	X2	Y2	Z2	X3	Y3	Z3	X4	Y4	Z4	X5	Y5	Z5	X6	Y6	Z6	X7	Y7	Z7	X8	Y8	Z8	X9	Y9	Z9	X10	Y10	Z10	X11	Y11	Z11	X12	Y12	Z12	X13	Y13	Z13	X14	Y14	Z14	X15	Y15	Z15	X16	Y16	Z16	X17	Y17	Z17	X18	Y18	Z18	X19	Y19	Z19	X20	Y20	Z20	X21	Y21	Z21	X22	Y22	Z22	X23	Y23	Z23	X24	Y24	Z24	X25	Y25	Z25	X26	Y26	Z26	X27	Y27	Z27	X28	Y28	Z28	X29	Y29	Z29	X30	Y30	Z30	X31	Y31	Z31	X32	Y32	Z32	X33	Y33	Z33	X34	Y34	Z34	X35	Y35	Z35	X36	Y36	Z36

1217	10.13333	0.00000	0.00000	0.00000	-4557.47510	926.63666	368.23373	-4584.29395	580.19171	397.07153	-4604.56445	542.92712	389.88641	-4639.41797	602.28070	381.14758	-4649.68896	561.07208	376.44455	-4650.85352	481.31979	370.17496	0.00000	0.00000	0.00000	-4603.65967	381.75418	391.27368	-4613.03857	335.63263	394.43478	0.00000	0.00000	0.00000	-4660.16650	350.26004	378.35144	0.00000	0.00000	0.00000	-4376.48535	415.79810	99.43063	-4375.22754	415.07346	187.22778	0.00000	0.00000	0.00000	-4343.77539	445.42102	-61.02459	0.00000	0.00000	0.00000	0.00000	0.00000	0.00000	-4555.49023	958.18146	112.57021	-4391.05859	573.92664	70.44899	-4387.61816	533.11487	66.47134	-4448.78271	558.83105	81.04623	-4434.35693	516.80988	77.98800	0.00000	0.00000	0.00000	-4662.77930	386.68768	375.87137	0.00000	0.00000	0.00000	0.00000	0.00000	0.00000	-4282.58105	284.31335	120.18121	0.00000	0.00000	0.00000	0.00000	0.00000	0.00000	0.00000	0.00000	0.00000	-4051.57959	234.22165	145.50859	-4172.48047	71.56544	177.91130	-4192.14453	68.65340	137.52074	-4164.03809	77.36053	89.17533
1218	10.14167	0.00000	0.00000	0.00000	-4566.92041	928.66864	368.26483	-4590.08789	581.16412	397.41577	-4609.89014	543.64380	390.21045	-4645.35449	602.55261	381.09830	-4655.10107	561.21558	376.42850	-4655.19727	481.25601	370.17416	0.00000	0.00000	0.00000	-4607.04785	381.86740	391.60464	-4616.07617	335.70654	394.67532	0.00000	0.00000	0.00000	-4663.17236	349.91086	378.35089	0.00000	0.00000	0.00000	-4397.67188	414.15237	100.51905	-4394.74707	411.94073	188.16866	0.00000	0.00000	0.00000	0.00000	0.00000	0.00000	0.00000	0.00000	0.00000	0.00000	0.00000	0.00000	-4562.70801	960.71350	112.84878	-4406.94775	573.00543	71.46221	-4404.64697	532.27917	69.69118	-4466.19629	560.05042	81.72102	-4452.28467	516.81946	78.93687	0.00000	0.00000	0.00000	-4666.18262	386.29095	375.90448	-4263.86963	334.73938	109.01389	0.00000	0.00000	0.00000	-4299.32617	285.87146	121.09563	0.00000	0.00000	0.00000	0.00000	0.00000	0.00000	0.00000	0.00000	0.00000	-4068.15039	244.71973	146.06819	-4181.58740	76.68167	178.31676	-4201.08740	72.87874	137.92946	-4173.27100	82.88867	89.62255
1219	10.15000	0.00000	0.00000	0.00000	-4576.20264	930.57806	368.22720	-4595.76611	582.01874	397.86670	-4615.18701	544.34375	390.61938	-4651.17334	602.79407	380.99860	-4660.45020	561.35999	376.37454	-4659.48047	481.21881	370.27884	0.00000	0.00000	0.00000	-4610.35400	382.00861	392.03284	-4618.97754	335.71356	394.96881	0.00000	0.00000	0.00000	-4666.04639	349.51355	378.38245	0.00000	0.00000	0.00000	-4418.97998	413.16849	101.64330	0.00000	0.00000	0.00000	-4554.40039	87.72224	299.78986	-4582.32129	35.50428	348.64026	0.00000	0.00000	0.00000	0.00000	0.00000	0.00000	-4569.95605	963.32471	112.94485	-4422.88574	572.18347	72.52643	0.00000	0.00000	0.00000	-4482.18652	560.67560	82.30711	-4470.25439	517.41077	79.84171	0.00000	0.00000	0.00000	-4669.44434	385.89896	376.00232	-4282.98877	337.73257	109.85318	0.00000	0.00000	0.00000	-4316.66406	287.62695	122.24223	0.00000	0.00000	0.00000	0.00000	0.00000	0.00000	0.00000	0.00000	0.00000	-4081.21777	252.32613	146.77414	-4193.25391	83.23550	178.98380	-4212.97705	79.40071	138.65135	-4185.46045	89.78920	90.31909
1220	10.15833	0.00000	0.00000	0.00000	-4585.47705	932.49664	368.18542	-4601.31299	582.83435	398.43695	-4620.29150	544.95422	391.11929	-4656.87549	602.97650	381.02814	-4665.60449	561.39240	376.43652	-4663.52295	481.16354	370.49448	0.00000	0.00000	0.00000	-4613.39307	382.19186	392.53400	-4621.61768	335.79782	395.37997	0.00000	0.00000	0.00000	-4668.65723	349.22559	378.59470	0.00000	0.00000	0.00000	-4440.14697	413.10681	102.82662	0.00000	0.00000	0.00000	-4554.51270	87.92651	299.83643	0.00000	0.00000	0.00000	0.00000	0.00000	0.00000	0.00000	0.00000	0.00000	-4577.14404	965.85242	112.85603	-4438.83740	571.89117	73.61005	0.00000	0.00000	0.00000	-4498.83398	562.21436	83.24277	-4487.60889	518.87024	82.07837	0.00000	0.00000	0.00000	-4672.42725	385.50476	376.26260	-4302.22070	340.98212	110.75791	0.00000	0.00000	0.00000	-4334.65479	289.76151	123.47189	0.00000	0.00000	0.00000	0.00000	0.00000	0.00000	0.00000	0.00000	0.00000	-4097.72168	260.04791	147.22607	-4205.91650	88.51648	179.78082	-4225.59424	84.16960	139.47313	-4198.37012	95.11346	91.07803
